<svg xmlns="http://www.w3.org/2000/svg" version="1.1" xmlns:xlink="http://www.w3.org/1999/xlink" width="1500" height="1500" viewBox="0 0 1500 1500"><rect width="1500" height="1500" x="0" y="0" id="background" stroke="transparent" fill="#ffffff"></rect><svg xml:space="preserve" width="1000" height="1000" data-version="2" data-id="lg_04B8qlaNPKdEnc0rd7" viewBox="0 0 384 191" x="250" y="250"><rect width="100%" height="100%" fill="transparent"></rect><path fill="#111" d="M160.962 57.753a3.816 3.816 0 0 0-3.26-1.814H119.23V40.501h19.236c2.124 0 3.847-1.737 3.847-3.86V5.765c0-2.123-1.723-3.86-3.847-3.86H38.439c-2.124 0-3.847 1.737-3.847 3.86V36.64c0 2.123 1.723 3.86 3.847 3.86h19.236v15.438H18.972c-1.331 0-2.57.695-3.27 1.83L3.827 77.075v17.46c0 6.276 3.524 11.58 7.695 11.58 6.363 0 11.541-5.194 11.541-11.58 0-2.122 1.724-3.86 3.848-3.86s3.847 1.738 3.847 3.86c0 6.386 5.178 11.58 11.541 11.58s11.542-5.194 11.542-11.58c0-2.122 1.724-3.86 3.847-3.86s3.847 1.738 3.847 3.86c0 6.386 5.179 11.58 11.542 11.58s11.542-5.194 11.542-11.58c0-2.122 1.723-3.86 3.847-3.86s3.847 1.738 3.847 3.86c0 6.386 5.176 11.58 11.542 11.58s11.541-5.194 11.541-11.58c0-2.122 1.731-3.86 3.847-3.86s3.848 1.738 3.848 3.86c0 6.386 5.176 11.58 11.541 11.58s11.542-5.194 11.542-11.58c0-2.122 1.731-3.86 3.847-3.86s3.847 1.738 3.847 3.86c0 5.334 2.518 11.58 9.618 11.58s9.618-6.246 9.618-11.58V77.23zM65.375 55.94V40.501h46.166v15.438z"></path><path fill="#111" d="M34.597 164.008H142.32V111.48c-2.37 1.135-4.948 1.89-7.694 1.89-6.28 0-11.873-2.809-15.39-7.504-3.516 4.678-9.102 7.849-15.388 7.849a19.182 19.244 0 0 1-15.389-7.673c-3.516 4.695-9.102 7.76-15.389 7.76a19.207 19.27 0 0 1-15.388-7.72 19.22 19.283 0 0 1-15.39 7.735c-2.746 0-5.324-.664-7.694-1.708z"></path><path fill="#111" d="M150.006 106.2v61.668c0 2.123-1.724 3.86-3.848 3.86H30.742c-2.123 0-3.847-1.737-3.847-3.86v-61.77c-3.516 4.686-9.102 7.735-15.389 7.735v69.473c0 2.123 1.724 3.86 3.848 3.86h146.193c2.124 0 3.847-1.737 3.847-3.86v-68.87c-5.724.001-12.188-3.932-15.388-8.237"></path><path d="M214.131 54.1q-1.02 1.68-2.16 3.15-1.14 1.48-2.4 2.58-1.25 1.09-2.58 1.71-1.34.62-2.73.62-.7 0-1.48-.29-.78-.28-1.43-.93-.65-.65-1.08-1.73-.43-1.08-.43-2.7v-36.6q-2.19.29-4.14 1.24-1.95.95-3.39 2.61-1.45 1.65-2.29 3.99-.84 2.35-.84 5.43 0 1.97.41 3.54.42 1.57.99 2.67.57 1.09 1.14 1.69.57.61.89.61.28 0 .54-.13.25-.13.51-.13.5 0 .5.8 0 1.01-.46 1.95-.46.93-1.16 1.52-.69.59-1.52.75-.82.16-1.52-.35-.86-.57-1.83-1.75-.97-1.17-1.77-2.84-.81-1.66-1.34-3.76-.52-2.09-.52-4.57 0-3.43.82-6.14.83-2.71 2.21-4.74 1.38-2.04 3.22-3.46 1.84-1.43 3.87-2.32 2.03-.89 4.13-1.29 2.09-.39 4-.39.51 0 .98.2.48.21.83.57.35.37.57.88.22.5.22 1.08v38.56q0 .63.21.78.2.14.39.14.48 0 1.31-.68.82-.69 1.79-1.81.97-1.13 1.95-2.61.98-1.47 1.78-3.06.79-1.59 1.3-3.17.51-1.59.51-2.99V18.04q0-.92-.13-1.33-.13-.41-.13-.76 0-.48.49-.8.5-.31 1.19-.31 1.62 0 2.64.84 1.01.84 1.01 2.04v28.19q0 3.2.05 5.54.05 2.33.15 4 .09 1.66.19 2.79.09 1.13.19 1.92.19.28.19.44 0 .32-.32.61-.32.28-.79.49-.48.2-1.07.33-.58.13-1.12.13-.86 0-1.34-.49-.47-.5-.71-1.5t-.33-2.49q-.1-1.49-.16-3.46Z"></path><rect width="35.93" height="47.32" x="-17.96" y="-23.66" fill="none" rx="0" ry="0" transform="translate(202.5 39)"></rect><path d="M225.201 38.7q0-.92-.14-1.33-.14-.41-.14-.76 0-.48.51-.78.5-.3 1.2-.3 1.62 0 2.56.84.93.84.93 2.02v2.92q.67-1.37 1.45-2.54.77-1.18 1.68-2.05.9-.87 1.93-1.36 1.04-.5 2.24-.5 1.62 0 2.67.61 1.05.6 1.65 1.55.6.95.84 2.13.24 1.17.24 2.28v13.46q0 .22.03.71.03.5.19 1 .16.51.49.89.34.38.97.38.98 0 1.7-.69.71-.7 1.24-1.75.52-1.05.85-2.27.34-1.22.56-2.3.19-1.02.63-1.48.45-.46.92-.46.38 0 .8.24.41.24.74.62.34.38.54.86.21.47.21.95v.16q0 .09-.06.28-.42 1.62-1.13 3.4-.72 1.78-1.84 3.27-1.13 1.49-2.68 2.47-1.56.99-3.65.99-1.31 0-2.31-.49-.99-.5-1.71-1.32-.71-.83-1.08-1.94-.36-1.11-.36-2.35v-13.2q0-.76-.03-1.43-.04-.66-.18-1.17-.14-.51-.41-.81-.27-.3-.75-.3-.7 0-1.71.95-1.02.95-2 2.48-.99 1.52-1.73 3.44-.75 1.92-.94 3.86v9.49q0 .47-.01.96-.02.5-.19.89-.18.4-.54.67-.37.27-1.07.27-.47 0-1.03-.11-.55-.11-1.01-.42-.46-.3-.77-.85-.3-.56-.3-1.48Z"></path><rect width="27.77" height="27.3" x="-13.88" y="-13.65" fill="none" rx="0" ry="0" transform="translate(239.3 49.01)"></rect><path d="M253.581 41.12q.35-.67.68-1.8.33-1.12.63-2.49.31-1.36.56-2.86.25-1.49.44-2.92.19-1.42.31-2.68.11-1.25.11-2.14 0-3.24-.48-4.74-.48-1.51-1.27-1.51-.25 0-.44.25-.19.26-.32.65-.13.4-.18.86-.04.46-.04.84Zm9.23 9.8q.19-.95.59-1.38.4-.43.86-.47.46-.05.93.22.48.27.83.71.35.45.52 1 .18.56.05 1.1-.44 1.3-1.27 3.04-.82 1.75-2.09 3.3-1.27 1.56-2.99 2.64-1.71 1.08-3.93 1.08-1.88 0-3.3-.62-1.43-.62-2.4-1.75-.97-1.12-1.46-2.69-.49-1.57-.49-3.51V24.01q0-1.81.46-3.35t1.27-2.63q.81-1.1 1.89-1.72 1.08-.62 2.28-.62 1.43 0 2.41.53.99.52 1.62 1.38.64.85 1 1.97.37 1.11.53 2.26.15 1.16.19 2.29.03 1.13.03 2.05 0 2.38-.45 5-.44 2.61-1.12 5.15-.69 2.54-1.5 4.88-.8 2.33-1.55 4.14-.75 1.81-1.33 2.95-.59 1.14-.81 1.33v3.78q0 1.97.82 3.22.83 1.25 2.64 1.25 1.11 0 2.08-.68.96-.68 1.71-1.71.75-1.03 1.25-2.26.51-1.22.73-2.3"></path><rect width="18.02" height="46.47" x="-9.01" y="-23.23" fill="none" rx="0" ry="0" transform="translate(258.17 39.42)"></rect><path d="M266.401 29.09q-.79 0-1.51-.32-.71-.32-1.24-.86-.52-.54-.84-1.25-.31-.72-.31-1.54 0-.86.31-1.59.32-.73.84-1.25.53-.52 1.24-.83.72-.3 1.51-.3.86 0 1.59.3.73.31 1.25.83t.83 1.25q.3.73.3 1.59 0 .82-.3 1.54-.31.71-.83 1.25t-1.25.86q-.73.32-1.59.32m1.49 25.8q0 .22.03.71.03.5.19 1 .16.51.51.89t.99.38q.95 0 1.66-.69.72-.7 1.24-1.75t.87-2.27q.35-1.22.57-2.3.19-.98.59-1.43.4-.44.86-.49.46-.05.92.24.46.28.82.74.37.46.54 1.03.18.58.05 1.08-.44 1.62-1.16 3.4-.71 1.78-1.82 3.27t-2.67 2.47q-1.55.99-3.65.99-1.3 0-2.32-.49-1.01-.5-1.71-1.32-.7-.83-1.06-1.94-.37-1.11-.37-2.35V38.7q0-.92-.14-1.33-.14-.41-.14-.76 0-.48.5-.78.51-.3 1.21-.3 1.62 0 2.55.84.94.84.94 2.02Z"></path><rect width="15.32" height="41.01" x="-7.66" y="-20.5" fill="none" rx="0" ry="0" transform="translate(270.66 42.16)"></rect><path d="M312.991 52.03q-.44 1.62-1.16 3.4-.71 1.78-1.82 3.27t-2.67 2.47q-1.55.99-3.65.99-1.3 0-2.3-.49-1-.5-1.71-1.32-.72-.83-1.08-1.94-.37-1.11-.37-2.35v-13.2q0-.76-.03-1.43-.03-.66-.16-1.17-.12-.51-.36-.81-.24-.3-.65-.3-.67 0-1.62.95-.95.95-1.84 2.48-.89 1.52-1.59 3.44-.7 1.92-.82 3.86v9.49q0 .47-.02.96-.02.5-.19.89-.18.4-.54.67-.37.27-1.06.27-.48 0-1.04-.11-.55-.11-1.01-.42-.46-.3-.76-.85-.3-.56-.3-1.48V42.86q0-.76-.05-1.43-.05-.66-.18-1.17-.12-.51-.36-.81-.24-.3-.65-.3-.67 0-1.6.95-.94.95-1.85 2.48-.9 1.52-1.58 3.44t-.84 3.86v9.49q0 .47-.02.96-.02.5-.19.89-.17.4-.54.67-.36.27-1.06.27-.48 0-1.03-.11-.56-.11-1.02-.42-.46-.3-.76-.85-.3-.56-.3-1.48V38.7q0-.92-.15-1.33-.14-.41-.14-.76 0-.48.51-.78.51-.3 1.21-.3 1.61 0 2.55.84.94.84.94 2.02v2.73q.63-1.34 1.38-2.48.74-1.14 1.6-1.98.86-.84 1.82-1.32.97-.48 2.08-.48 1.46 0 2.43.54.97.54 1.56 1.43.58.89.84 1.98.25 1.1.32 2.18.6-1.3 1.33-2.41.73-1.11 1.59-1.94.85-.82 1.82-1.3.97-.48 2.08-.48 1.59 0 2.6.61 1.02.6 1.59 1.55.57.95.79 2.13.22 1.17.22 2.28v13.46q0 .22.04.71.03.5.19 1 .16.51.49.89.33.38.97.38.98 0 1.69-.69.72-.7 1.24-1.75.53-1.05.87-2.27.35-1.22.58-2.3.19-1.02.62-1.48.42-.46.93-.46.38 0 .78.24t.73.62q.33.38.54.86.2.47.2.95v.16q0 .09-.06.28"></path><rect width="39.13" height="27.3" x="-19.57" y="-13.65" fill="none" rx="0" ry="0" transform="translate(293.99 49.01)"></rect><path d="M312.932 29.09q-.8 0-1.51-.32t-1.24-.86q-.52-.54-.84-1.25-.32-.72-.32-1.54 0-.86.32-1.59.32-.73.84-1.25.53-.52 1.24-.83.71-.3 1.51-.3.85 0 1.58.3.73.31 1.26.83.52.52.82 1.25.31.73.31 1.59 0 .82-.31 1.54-.3.71-.82 1.25-.53.54-1.26.86-.73.32-1.58.32m1.49 25.8q0 .22.03.71.03.5.19 1 .16.51.51.89t.98.38q.96 0 1.67-.69.71-.7 1.24-1.75.52-1.05.87-2.27t.57-2.3q.19-.98.59-1.43.4-.44.86-.49.46-.05.92.24.46.28.82.74.37.46.54 1.03.18.58.05 1.08-.45 1.62-1.16 3.4-.71 1.78-1.82 3.27-1.12 1.49-2.67 2.47-1.56.99-3.65.99-1.3 0-2.32-.49-1.01-.5-1.71-1.32-.7-.83-1.06-1.94-.37-1.11-.37-2.35V38.7q0-.92-.14-1.33-.15-.41-.15-.76 0-.48.51-.78.51-.3 1.21-.3 1.62 0 2.55.84.94.84.94 2.02Z"></path><rect width="15.33" height="41.01" x="-7.67" y="-20.5" fill="none" rx="0" ry="0" transform="translate(317.19 42.16)"></rect><path d="M314.861 29.79q.73.06 1.62.09.76.06 1.84.08 1.08.02 2.42.05V18.99q0-.69-.12-1.11-.11-.41-.22-.65-.11-.24-.22-.38t-.11-.3q0-.19.19-.32.19-.12.51-.22.31-.09.68-.14.36-.05.71-.05 1.62 0 2.56.84.93.84.93 2.02v11.39q2.99 0 6.3-.06 3.32-.07 6.65-.22.45-.48.72-.35.27.12.35.6.08.48.01 1.17-.06.7-.25 1.35-.19.65-.52 1.13-.34.48-.75.48-3.9.09-6.9.11-3 .01-5.61.01v20.6q0 1.59.61 2.29.6.69 1.62.69.98 0 1.69-.69.72-.7 1.24-1.75.53-1.05.86-2.27.33-1.22.55-2.3.2-1.02.64-1.48.44-.46.92-.46.38 0 .79.24.42.24.75.62t.54.86q.21.47.21.95v.16q0 .09-.07.28-.41 1.62-1.13 3.4-.71 1.78-1.84 3.27-1.12 1.49-2.68 2.47-1.55.99-3.65.99-1.3 0-2.39-.4-1.1-.4-1.89-1.27-.8-.87-1.24-2.24-.44-1.36-.44-3.3V34.29q-1.08 0-1.92-.01-.85-.02-1.42-.05-.66-.03-1.17-.06-.76 0-1.35-.69-.59-.68-.83-1.5-.23-.83-.06-1.51.18-.68.87-.68"></path><rect width="25.86" height="46.34" x="-12.93" y="-23.17" fill="none" rx="0" ry="0" transform="translate(327.3 39.49)"></rect><path d="M347.462 41.43q0 1.81-.62 3.72-.62 1.9-1.84 3.6-1.22 1.7-3.02 3.05-1.79 1.34-4.14 2.04.32.83.84 1.57.53.75 1.26 1.29t1.7.86q.96.31 2.23.31 1.91 0 3.27-.71 1.37-.71 2.3-1.89.94-1.17 1.51-2.63.57-1.46.86-2.95.22-1.08.9-1.45.68-.36 1.4-.17.71.19 1.24.81.52.61.42 1.47-.12.99-.42 2.26-.31 1.26-.91 2.57-.6 1.3-1.54 2.55-.93 1.25-2.3 2.24-1.36.98-3.2 1.59-1.85.6-4.23.6-2.22 0-4.3-.87-2.07-.88-3.68-2.51-1.6-1.64-2.57-4.03-.97-2.4-.97-5.45 0-3.07.86-5.72t2.25-4.59q1.4-1.94 3.18-3.03 1.77-1.1 3.65-1.1 1.36 0 2.46.48 1.09.48 1.85 1.35.77.87 1.16 2.08.4 1.2.4 2.66m-10.47 7.68q0 .29.03.58.03.28.03.6 1.21-.57 2.19-1.46t1.68-2.03q.7-1.15 1.08-2.49.38-1.35.38-2.81 0-1.08-.36-1.69-.37-.6-1-.6-.8 0-1.42.54-.62.54-1.08 1.41-.46.88-.76 1.97-.3 1.1-.49 2.21-.19 1.11-.25 2.11-.07 1-.03 1.66"></path><rect width="24.17" height="27.3" x="-12.09" y="-13.65" fill="none" rx="0" ry="0" transform="translate(344.24 49.01)"></rect><path d="M359.081 62.16q-1.91 0-3.46-.67-1.56-.66-2.65-1.98-1.1-1.32-1.69-3.27-.58-1.95-.58-4.52 0-3.75 1.04-6.68 1.05-2.94 2.86-5.05 1.81-2.11 4.19-3.37 2.38-1.25 5.05-1.63V20.3q0-.7-.12-1.12-.11-.41-.22-.65-.11-.23-.22-.38-.11-.14-.11-.3 0-.19.19-.32.19-.12.51-.22.32-.09.68-.14.37-.05.71-.05 1.62 0 2.56.84t.94 2.02v34.91q0 .54.12 1.06.13.53.4.96.27.42.7.69.43.27 1 .27.98 0 1.7-.69.71-.7 1.23-1.75.53-1.05.86-2.27.33-1.22.56-2.3.19-1.02.63-1.48.44-.46.92-.46.38 0 .79.24.42.24.75.62t.54.86q.21.47.21.95v.16q0 .09-.07.28-.41 1.62-1.12 3.4-.72 1.78-1.85 3.27-1.12 1.49-2.68 2.47-1.55.99-3.65.99-1.68 0-2.95-.7-1.27-.7-2-1.84-1.08 1.11-2.49 1.82-1.41.72-3.28.72m.98-4.29q1.27 0 2.21-.73.93-.73 1.57-1.81V39.28q-1.59.28-3.07 1.06-1.47.78-2.6 2.17-1.13 1.4-1.79 3.54-.67 2.14-.67 5.19 0 1.78.37 3.03.36 1.26.95 2.05.59.79 1.38 1.17.79.38 1.65.38"></path><rect width="28.47" height="45.04" x="-14.23" y="-22.52" fill="none" rx="0" ry="0" transform="translate(365.44 40.14)"></rect><path d="M222.411 117.79q-2.06 0-3.43-.46-1.36-.46-2.16-1.04-.79-.57-1.11-1.09-.31-.52-.31-.68 0-.57.25-1.23.25-.65.63-1.2.39-.56.83-.94.44-.38.79-.38.45 0 .73.57l.32.32q.25.25.71.52.47.27 1.15.5.68.22 1.6.22 2 0 3.27-1.22 1.27-1.23 1.27-3.32 0-1.46-.68-2.6-.69-1.15-1.8-2.13t-2.54-1.92q-1.42-.94-2.92-1.95-1.49-1.02-2.92-2.19-1.42-1.18-2.53-2.7-1.12-1.52-1.8-3.44-.68-1.92-.68-4.4 0-2.13.73-4.28.73-2.16 2.02-4.11 1.28-1.96 3.03-3.65 1.74-1.7 3.77-2.96 2.03-1.25 4.24-1.96 2.21-.72 4.43-.72 1.9 0 3.43.61 1.52.6 2.57 1.69 1.04 1.1 1.61 2.64.58 1.54.58 3.44 0 1.81-.64 3.56-.63 1.74-1.68 3.3-1.05 1.55-2.37 2.87-1.31 1.32-2.69 2.28-1.38.97-2.69 1.51-1.3.54-2.28.54-.86 0-1.54-.39-.68-.4-1.14-.99-.46-.59-.72-1.24-.25-.65-.25-1.16 0-.41.11-.53.11-.13.32-.12.2.02.52.1t.73.08q1.34 0 2.95-.92 1.62-.92 3.05-2.35 1.43-1.43 2.4-3.14.96-1.72.96-3.33 0-1.66-.8-2.61-.81-.95-2.75-.95-1.21 0-2.62.46-1.41.46-2.84 1.29-1.43.82-2.76 2-1.33 1.17-2.35 2.58-1.01 1.41-1.63 3.05-.62 1.63-.62 3.41 0 1.87.68 3.35t1.81 2.68q1.13 1.21 2.55 2.22 1.43 1.02 2.92 2.02 1.5 1 2.92 2.06 1.43 1.06 2.56 2.35 1.13 1.29 1.81 2.86.68 1.57.68 3.6 0 1.97-.75 3.73-.74 1.76-2.04 3.06t-3.08 2.06q-1.78.77-3.81.77"></path><rect width="26.41" height="48.44" x="-13.21" y="-24.22" fill="none" rx="0" ry="0" transform="translate(224.79 94.07)"></rect><path d="M239.101 75.38q0-.7-.11-1.11-.11-.41-.22-.65-.11-.24-.22-.38t-.11-.3q0-.19.19-.32t.51-.22q.31-.1.68-.14.36-.05.71-.05 1.62 0 2.56.84.93.84.93 2.02v21.32q.67-1.36 1.45-2.54.78-1.17 1.68-2.04.9-.88 1.94-1.37 1.03-.49 2.23-.49 1.62 0 2.67.6 1.05.61 1.65 1.56.6.95.84 2.13.24 1.17.24 2.28v13.46q0 .22.03.71t.19 1q.16.51.49.89.34.38.97.38.99 0 1.7-.7t1.24-1.74q.52-1.05.85-2.27.34-1.22.56-2.3.19-.99.59-1.43.39-.45.85-.49.46-.05.94.23.48.29.83.75.34.46.52 1.03.17.57.05 1.08-.45 1.62-1.16 3.4-.72 1.77-1.83 3.27-1.11 1.49-2.66 2.47-1.56.99-3.65.99-1.3 0-2.3-.5-1-.49-1.72-1.31-.71-.83-1.08-1.94-.36-1.11-.36-2.35v-13.2q0-.76-.03-1.43-.04-.67-.18-1.17-.14-.51-.41-.81-.27-.3-.75-.3-.69 0-1.71.95t-2 2.47q-.98 1.53-1.73 3.45-.75 1.92-.94 3.85v9.49q0 .48-.01.97-.02.49-.19.89-.18.4-.54.67-.37.27-1.07.27-.47 0-1.03-.12-.55-.11-1.01-.41-.46-.3-.76-.85-.31-.56-.31-1.48Z"></path><rect width="28.18" height="45.04" x="-14.09" y="-22.52" fill="none" rx="0" ry="0" transform="translate(253.03 95.23)"></rect><path d="M286.811 104.71q.06-.38.43-.64.36-.25.84-.34.47-.1 1 0 .52.09.92.42.39.34.57.92.17.59-.05 1.51-.29 1.33-.94 2.49-.65 1.16-1.63 2.05-.98.89-2.32 1.4-1.33.5-2.98.5-.89 0-1.67-.09-.77-.1-1.5-.35-1.21 2.1-3.11 3.38-1.91 1.29-4.7 1.29-2.48 0-4.25-.97-1.78-.97-2.96-2.64-1.17-1.66-1.73-3.85-.55-2.19-.55-4.64 0-3.58.84-6.42t1.95-4.83q1.11-1.98 2.21-3.03 1.09-1.05 1.63-1.05.64 0 1.16.56.52.55.76 1.3t.13 1.51q-.11.76-.75 1.17-.38.61-.9 1.4-.53.79-.99 1.98-.46 1.19-.77 2.91-.32 1.71-.32 4.12 0 2.07.36 3.59.37 1.52 1.02 2.55.65 1.04 1.49 1.54.84.51 1.8.51 1.39 0 2.3-.68.9-.68 1.54-1.79-2.29-1.97-3.48-5-1.19-3.03-1.19-6.56 0-1.52.33-2.9.34-1.38.99-2.43.65-1.05 1.63-1.67.99-.61 2.29-.61 1.14 0 2.15.82 1.02.83 1.78 2.29t1.19 3.46q.43 2 .43 4.34 0 1.81-.22 3.59-.22 1.78-.7 3.43.35.12.65.14.3.02.65.02 1.05 0 1.86-.38.81-.39 1.38-1.02.57-.63.92-1.49.35-.86.51-1.81m-12.41-6.03q0 2.19.68 4.16.68 1.96 1.79 3.42.19-1.55.19-2.98 0-1.65-.04-3.06-.05-1.41-.23-2.43-.17-1.02-.47-1.6-.3-.59-.81-.59-1.11 0-1.11 3.08"></path><rect width="28.51" height="27.43" x="-14.26" y="-13.71" fill="none" rx="0" ry="0" transform="translate(276.94 104.03)"></rect><path d="M294.902 117.91q-1.21 0-1.97-.27t-1.17-.71v21.14q0 .88-.35 1.44-.35.56-.87.87-.53.32-1.13.43-.6.11-1.08.11-.98 0-1.24-.51-.25-.5-.25-1.23V93.79q0-.7-.11-1.11-.11-.41-.22-.65-.12-.24-.23-.38-.11-.14-.11-.33 0-.16.19-.29.19-.13.51-.22.32-.1.68-.14.37-.05.72-.05 1.55 0 2.49.84.93.84 1 1.95 1.01-1.49 2.44-2.48 1.43-.98 3.49-.98 1.91 0 3.32.89t2.35 2.43q.94 1.54 1.4 3.63.46 2.1.46 4.51 0 2.73-.48 5.22-.48 2.49-1.21 4.27 1.62-.1 2.67-.45 1.05-.35 1.76-.96.71-.62 1.24-1.51.52-.89 1.09-2.03.45-.92.75-1.34.3-.41.75-.41.41 0 .84.26.42.25.76.63.33.38.54.81.2.43.2.78 0 1.11-.76 2.54-.76 1.42-2.33 2.69t-3.97 2.15q-2.39.87-5.63.87-1.33 1.43-3.08 2.2-1.75.78-3.46.78m1.14-23.61q-.7 0-1.35.41-.65.41-1.22 1.13-.57.71-1 1.73-.43 1.01-.71 2.19v14.06q.7-1.02 2.28-1.56 1.59-.54 3.84-.73.58-.85 1-2.04.43-1.19.72-2.46.28-1.27.43-2.48.14-1.21.14-2.13 0-2.22-.33-3.77-.34-1.56-.91-2.53-.57-.96-1.32-1.39-.74-.43-1.57-.43"></path><rect width="27.96" height="50.97" x="-13.98" y="-25.48" fill="none" rx="0" ry="0" transform="translate(300.65 115.94)"></rect><path d="M325.241 96.52q0 1.81-.62 3.71-.62 1.91-1.84 3.61-1.22 1.69-3.01 3.04-1.8 1.35-4.14 2.05.31.83.84 1.57.52.75 1.25 1.29t1.7.85q.97.32 2.24.32 1.9 0 3.26-.71 1.37-.72 2.31-1.89.93-1.18 1.5-2.64.57-1.46.86-2.95.22-1.08.91-1.44.68-.37 1.39-.18.72.19 1.24.81.52.62.43 1.48-.13.98-.43 2.25t-.91 2.57q-.6 1.3-1.53 2.56-.94 1.25-2.31 2.24-1.36.98-3.2 1.58-1.84.61-4.22.61-2.22 0-4.3-.88-2.08-.87-3.68-2.5-1.61-1.64-2.58-4.04-.96-2.39-.96-5.44 0-3.08.85-5.73.86-2.65 2.26-4.58 1.39-1.94 3.17-3.03 1.78-1.1 3.65-1.1 1.37 0 2.46.48 1.1.47 1.86 1.35.76.87 1.16 2.07.39 1.21.39 2.67m-10.47 7.68q0 .29.03.57.03.29.03.61 1.21-.58 2.19-1.46.99-.89 1.68-2.04.7-1.14 1.08-2.49.38-1.35.38-2.81 0-1.07-.36-1.68-.37-.6-1-.6-.79 0-1.41.54-.62.54-1.08 1.41-.46.87-.76 1.97-.31 1.09-.5 2.2-.19 1.12-.25 2.12-.06.99-.03 1.66"></path><rect width="24.16" height="27.3" x="-12.08" y="-13.65" fill="none" rx="0" ry="0" transform="translate(322.02 104.1)"></rect><path d="M344.541 96.52q0 1.81-.62 3.71-.62 1.91-1.84 3.61-1.22 1.69-3.02 3.04-1.79 1.35-4.14 2.05.32.83.84 1.57.53.75 1.26 1.29t1.7.85q.96.32 2.23.32 1.91 0 3.27-.71 1.37-.72 2.3-1.89.94-1.18 1.51-2.64.57-1.46.86-2.95.22-1.08.9-1.44.68-.37 1.4-.18.71.19 1.24.81.52.62.42 1.48-.12.98-.42 2.25-.31 1.27-.91 2.57-.6 1.3-1.54 2.56-.93 1.25-2.3 2.24-1.36.98-3.2 1.58-1.85.61-4.23.61-2.22 0-4.3-.88-2.07-.87-3.68-2.5-1.6-1.64-2.57-4.04-.97-2.39-.97-5.44 0-3.08.86-5.73.86-2.65 2.25-4.58 1.4-1.94 3.18-3.03 1.78-1.1 3.65-1.1 1.36 0 2.46.48 1.09.47 1.85 1.35.77.87 1.16 2.07.4 1.21.4 2.67m-10.47 7.68q0 .29.03.57.03.29.03.61 1.21-.58 2.19-1.46.98-.89 1.68-2.04.7-1.14 1.08-2.49.38-1.35.38-2.81 0-1.07-.36-1.68-.37-.6-1-.6-.8 0-1.42.54-.61.54-1.08 1.41-.46.87-.76 1.97-.3 1.09-.49 2.2-.19 1.12-.25 2.12-.07.99-.03 1.66"></path><rect width="24.17" height="27.3" x="-12.09" y="-13.65" fill="none" rx="0" ry="0" transform="translate(341.32 104.1)"></rect><path d="M204.742 163.67q-.75 0-1.26-.51-.52-.5-.52-1.5 0-.22.03-.44t.09-.41q.05-.19.14-.3.09-.12.19-.12t.18.06q.09.06.24.14.14.07.4.13.25.06.7.06 1.08 0 2.21-.34t2.06-.98q.93-.63 1.52-1.53.6-.9.6-2.03 0-.41-.14-.8-.14-.39-.41-.7-.27-.3-.69-.49-.42-.2-.99-.2-1.56 0-2.86.68-1.3.69-2.35 1.85-1.06 1.16-1.85 2.69-.79 1.52-1.32 3.21-.52 1.69-.8 3.43-.27 1.73-.27 3.3 0 1.87.23 3.46.24 1.6.76 2.75.53 1.15 1.41 1.8.88.66 2.17.66 1.17 0 2.07-.6.9-.59 1.57-1.61.68-1.01 1.15-2.37.48-1.36.83-2.9.36-1.55.61-3.19t.45-3.2q.06-.39.57-.59.5-.21 1.07-.21.23 0 .49.06.25.06.44.17.18.12.27.32.09.19.03.49-.16.78-.33 2.47-.18 1.69-.18 4.05 0 1.97.03 3.4.03 1.42.09 2.46.06 1.03.12 1.73.05.69.11 1.16.12.17.12.27 0 .2-.19.37-.2.18-.49.32-.3.13-.66.21-.36.08-.69.08-.53 0-.8-.22-.27-.21-.4-.71t-.17-1.33q-.04-.83-.08-2.04-.45.96-1.11 1.78-.66.82-1.48 1.44-.82.61-1.79.96-.97.35-2.02.35-1.64 0-3-.62-1.36-.63-2.33-2.01-.98-1.39-1.52-3.63-.53-2.23-.53-5.46 0-2.2.41-4.42.42-2.22 1.22-4.25.79-2.03 1.93-3.79 1.14-1.75 2.57-3.04 1.42-1.29 3.11-2.03 1.69-.75 3.59-.75 1.23 0 2.19.39.97.39 1.64 1.09.66.69 1.01 1.62.35.93.35 1.98 0 1.74-.84 3.19-.84 1.46-2.2 2.51-1.37 1.06-3.13 1.65-1.76.58-3.57.58"></path><rect width="18.02" height="30" x="-9.01" y="-15" fill="none" rx="0" ry="0" transform="translate(205.97 166.16)"></rect><path d="M220.852 180.18q-1.17 0-2.13-.42-.96-.41-1.63-1.22-.67-.81-1.04-2.01-.36-1.2-.36-2.78 0-2.31.65-4.11.64-1.81 1.76-3.11 1.11-1.3 2.57-2.07 1.47-.77 3.11-1v-9.05q0-.43-.07-.68-.07-.25-.14-.4-.06-.15-.13-.23-.07-.09-.07-.19 0-.12.12-.2.11-.07.31-.13.19-.06.42-.09.22-.03.44-.03.99 0 1.57.52.58.52.58 1.24v21.48q0 .33.07.66.08.32.25.58.16.27.43.43.26.17.61.17.61 0 1.05-.43.44-.43.76-1.08.32-.64.53-1.39.2-.75.34-1.42.12-.62.39-.91.27-.28.57-.28.23 0 .48.15.26.14.46.38.21.23.34.53.12.29.12.58v.1q0 .06-.04.17-.25 1-.69 2.09-.44 1.1-1.13 2.02-.7.91-1.65 1.52-.96.61-2.25.61-1.03 0-1.82-.43-.78-.43-1.23-1.14-.66.69-1.53 1.13-.87.44-2.02.44m.61-2.64q.78 0 1.35-.45.58-.45.97-1.11v-9.89q-.98.18-1.89.66-.9.48-1.6 1.34-.69.85-1.1 2.17-.41 1.32-.41 3.2 0 1.09.22 1.86.23.77.59 1.26t.85.72q.49.24 1.02.24"></path><rect width="17.52" height="27.72" x="-8.76" y="-13.86" fill="none" rx="0" ry="0" transform="translate(224.95 166.82)"></rect><path d="M254.892 173.94q-.27 1-.71 2.09-.44 1.1-1.12 2.02-.69.91-1.64 1.52-.96.61-2.25.61-.8 0-1.42-.31-.61-.3-1.05-.81-.44-.51-.66-1.19-.23-.68-.23-1.44v-8.13q0-.47-.02-.88-.02-.41-.1-.72-.07-.31-.22-.5t-.4-.19q-.41 0-1 .59-.58.59-1.13 1.52-.55.94-.98 2.12-.43 1.19-.5 2.38v5.84q0 .29-.01.59t-.12.55q-.11.24-.33.41-.23.17-.66.17-.29 0-.63-.07t-.63-.26q-.28-.18-.47-.52-.18-.35-.18-.91V168.3q0-.47-.03-.88-.03-.41-.11-.72t-.22-.5q-.15-.19-.4-.19-.41 0-.99.59-.58.59-1.13 1.52-.56.94-.98 2.12-.42 1.19-.52 2.38v5.84q0 .29-.01.59t-.11.55q-.11.24-.34.41-.22.17-.65.17-.29 0-.64-.07-.34-.07-.62-.26-.28-.18-.47-.52-.18-.35-.18-.91v-12.68q0-.56-.09-.82-.09-.25-.09-.47 0-.29.31-.48.31-.18.74-.18 1 0 1.58.52.57.51.57 1.24v1.68q.39-.82.85-1.53.46-.7.99-1.22t1.12-.81q.6-.29 1.28-.29.9 0 1.5.33.59.33.95.88t.52 1.22q.16.67.2 1.34.37-.8.82-1.49.44-.68.97-1.19.53-.51 1.12-.8.6-.29 1.28-.29.98 0 1.61.37.62.37.97.96.35.58.49 1.3.14.73.14 1.41v8.28q0 .14.02.44t.11.62q.1.31.31.54.2.24.59.24.61 0 1.05-.43.44-.43.76-1.08.32-.64.54-1.39.21-.75.35-1.42.12-.62.38-.91.26-.28.57-.28.24 0 .48.15.25.14.45.38.21.23.33.53.13.29.13.58v.1q0 .06-.04.17"></path><rect width="24.08" height="16.8" x="-12.04" y="-8.4" fill="none" rx="0" ry="0" transform="translate(243.4 172.28)"></rect><path d="M254.852 159.82q-.48 0-.92-.19-.44-.2-.77-.53-.32-.33-.51-.77-.2-.44-.2-.95 0-.53.2-.97.19-.45.51-.78.33-.32.77-.5.44-.19.92-.19.53 0 .98.19.45.18.77.5.32.33.51.78.18.44.18.97 0 .51-.18.95-.19.44-.51.77t-.77.53q-.45.19-.98.19m.92 15.88q0 .14.02.44t.12.62q.1.31.31.54.22.24.61.24.58 0 1.02-.43.44-.43.76-1.08.33-.64.54-1.39.22-.75.35-1.42.12-.6.36-.88.25-.27.53-.3.28-.03.57.15.28.17.5.46.23.28.34.63.1.35.03.66-.28 1-.72 2.09-.44 1.1-1.12 2.02-.68.91-1.64 1.52-.96.61-2.25.61-.8 0-1.42-.31-.63-.3-1.06-.81-.43-.51-.65-1.19-.23-.68-.23-1.44v-10.69q0-.56-.08-.82-.09-.25-.09-.47 0-.29.31-.48.31-.18.74-.18 1 0 1.58.52.57.51.57 1.24Z"></path><rect width="9.43" height="25.24" x="-4.71" y="-12.62" fill="none" rx="0" ry="0" transform="translate(257.67 168.06)"></rect><path d="M259.662 165.74q0-.56-.09-.82-.09-.25-.09-.47 0-.29.31-.48.32-.18.75-.18.99 0 1.57.52.58.51.58 1.24v1.79q.41-.84.88-1.56.48-.72 1.04-1.26t1.19-.84q.64-.3 1.38-.3.99 0 1.64.37.64.37 1.01.96.38.58.52 1.3.15.73.15 1.41v8.28q0 .14.02.44t.11.62q.1.31.31.54.2.24.59.24.61 0 1.05-.43.44-.43.76-1.08.32-.64.53-1.39.2-.75.34-1.42.12-.62.39-.91.27-.28.57-.28.23 0 .48.15.26.14.46.38.21.23.34.53.12.29.12.58v.1q0 .06-.04.17-.25 1-.69 2.09-.44 1.1-1.13 2.02-.7.91-1.65 1.52-.96.61-2.25.61-.8 0-1.42-.31-.61-.3-1.05-.81-.44-.51-.66-1.19-.23-.68-.23-1.44v-8.13q0-.47-.02-.88-.02-.41-.11-.72-.08-.31-.25-.5-.17-.19-.46-.19-.43 0-1.05.59-.63.59-1.23 1.52-.61.94-1.07 2.12-.46 1.19-.57 2.38v5.84q0 .29-.01.59t-.12.55q-.11.24-.33.41-.23.17-.66.17-.29 0-.63-.07t-.63-.26q-.28-.18-.47-.52-.18-.35-.18-.91Z"></path><rect width="17.09" height="16.8" x="-8.54" y="-8.4" fill="none" rx="0" ry="0" transform="translate(268.53 172.28)"></rect><path d="M289.502 158.1q0-.56-.09-.82-.08-.25-.08-.46 0-.3.31-.49.31-.2.74-.2 1 0 1.61.52.62.52.62 1.26v13.07q.68-.08 1.55-.39.87-.32 1.79-.87.92-.56 1.78-1.38.87-.82 1.56-1.91.68-1.1 1.1-2.48.42-1.37.42-3.05 0-1.14-.36-2.35-.36-1.21-1.14-2.2-.78-1-2.02-1.64-1.25-.65-3-.65-2.41 0-4.12.74-1.72.75-2.81 2-1.08 1.25-1.59 2.9t-.51 3.48q0 1.33.23 2.24.22.91.5 1.48.27.58.5.85.24.28.28.32.33-.1.47.07.13.18.13.47 0 .28-.18.82-.19.55-.5 1.03t-.72.72q-.41.25-.84-.09-.24-.21-.73-.78-.48-.56-.96-1.51t-.85-2.29q-.37-1.33-.37-3.09 0-2.82.88-5.09.87-2.28 2.47-3.9 1.59-1.62 3.8-2.5 2.2-.88 4.88-.88 2.19 0 3.97.73 1.79.72 3.05 2.02 1.26 1.3 1.94 3.09.69 1.8.69 3.93 0 2.62-.94 4.83-.94 2.22-2.5 3.94-1.56 1.72-3.6 2.85-2.05 1.13-4.25 1.54v5.28q0 .5-.33.71-.34.21-.79.21-.35 0-.7-.1t-.63-.26q-.29-.15-.47-.36-.19-.2-.19-.44Z"></path><rect width="21.68" height="29.13" x="-10.84" y="-14.56" fill="none" rx="0" ry="0" transform="translate(293.56 166.12)"></rect><path d="M319.812 172.46q.04-.23.27-.39.22-.16.52-.22.29-.05.61 0 .32.06.57.27.24.2.35.56.11.37-.03.93-.18.82-.58 1.54-.4.71-1 1.26-.61.54-1.43.85-.82.32-1.83.32-.55 0-1.03-.06t-.93-.22q-.74 1.29-1.91 2.08-1.17.8-2.89.8-1.53 0-2.62-.6t-1.82-1.62q-.72-1.03-1.06-2.37-.34-1.35-.34-2.86 0-2.2.52-3.95.51-1.75 1.2-2.97.68-1.22 1.35-1.87.68-.64 1.01-.64.39 0 .71.34.33.34.47.8.15.46.08.93-.07.47-.46.72-.23.37-.56.86-.32.49-.6 1.22-.28.74-.48 1.79-.19 1.05-.19 2.54 0 1.27.22 2.21.22.93.62 1.57.41.63.92.95.52.31 1.11.31.86 0 1.41-.42.56-.42.95-1.11-1.41-1.21-2.14-3.07-.73-1.87-.73-4.03 0-.94.2-1.79.21-.85.61-1.5.4-.64 1-1.02.61-.38 1.41-.38.7 0 1.33.51.62.5 1.09 1.4.47.9.74 2.13.26 1.23.26 2.68 0 1.11-.14 2.2-.13 1.1-.43 2.11.22.08.4.09.19.01.4.01.65 0 1.15-.23.49-.24.85-.63.35-.39.56-.92.22-.52.31-1.11m-7.63-3.71q0 1.35.42 2.56t1.1 2.11q.12-.96.12-1.84 0-1.01-.03-1.88-.03-.87-.14-1.5-.11-.62-.29-.98-.19-.37-.5-.37-.68 0-.68 1.9"></path><rect width="17.55" height="16.88" x="-8.78" y="-8.44" fill="none" rx="0" ry="0" transform="translate(313.94 172.24)"></rect><path d="M328.542 180.18q-.7 0-1.43-.22-.73-.21-1.33-.74-.59-.53-.98-1.4-.38-.87-.38-2.2 0-1.93.52-4.09t1.5-4.75h-3.5q-.02.58-.07 1.48t-.16 1.92q-.12 1.01-.31 2.05-.18 1.03-.46 1.91-.19.62-.61.72-.42.1-.83-.14-.41-.25-.67-.72-.25-.47-.11-.97.15-.61.27-1.48.12-.87.19-1.83.06-.97.1-1.94.04-.96.06-1.73-.74-.41-1.23-1.04-.49-.64-.49-1.51 0-.41.17-.76.17-.34.44-.58.27-.25.64-.37.37-.13.76-.13.36 0 .74.1.38.09.72.35.34.25.62.66.27.41.44 1.02.49.06.83.09l.58.05q.23.01.39.01h2.4q.18 0 .52.22.34.21.67.56.34.34.56.73.23.39.17.74 0 .12-.14.57-.14.45-.33 1.13-.2.68-.43 1.57-.24.89-.43 1.87-.2.97-.33 2.02-.14 1.04-.14 2.04 0 .41.1.8.1.39.29.69.2.31.5.48.3.18.71.18.69 0 1.17-.43.49-.43.82-1.08.34-.64.54-1.39.21-.75.34-1.42.12-.62.39-.91.28-.28.57-.28.23 0 .49.15.25.14.46.38.2.23.33.53.13.29.13.58 0 .1-.02.16t-.02.11q-.28 1-.72 2.09-.43 1.1-1.12 2.02-.68.91-1.64 1.52-.96.61-2.25.61"></path><rect width="15.69" height="18.52" x="-7.84" y="-9.26" fill="none" rx="0" ry="0" transform="translate(326.97 171.42)"></rect><path d="M328.512 160.25q.45.04.99.06.47.04 1.13.05.67.01 1.49.03v-6.78q0-.43-.07-.68-.07-.25-.14-.4-.06-.15-.13-.24-.07-.08-.07-.18 0-.12.12-.2.11-.07.31-.13.19-.06.42-.09.22-.03.44-.03.99 0 1.57.52.58.51.58 1.24v7.01q1.83 0 3.87-.04t4.1-.14q.27-.29.43-.21.17.08.22.37.05.29.01.72t-.16.83q-.11.4-.32.7-.2.29-.46.29-2.4.06-4.25.07-1.84.01-3.44.01v12.67q0 .98.37 1.41.37.43.99.43.61 0 1.05-.43.44-.43.76-1.08.32-.64.53-1.39.2-.75.34-1.42.12-.62.39-.91.27-.28.57-.28.23 0 .48.15.26.14.46.38.21.23.34.53.12.29.12.58v.1q0 .06-.04.17-.25 1-.69 2.09-.44 1.1-1.13 2.02-.7.91-1.65 1.52-.96.61-2.25.61-.8 0-1.47-.25-.68-.24-1.17-.78-.48-.54-.76-1.38-.27-.84-.27-2.03v-12.71q-.66 0-1.18-.01-.52-.01-.87-.03-.41-.02-.72-.04-.47 0-.83-.42-.37-.42-.51-.93-.15-.51-.04-.93.11-.42.54-.42"></path><rect width="15.92" height="28.52" x="-7.96" y="-14.26" fill="none" rx="0" ry="0" transform="translate(336.35 166.42)"></rect><path d="M350.672 177.54q.61 0 1.05-.43.44-.43.76-1.08.32-.64.53-1.39.2-.75.34-1.42.14-.62.4-.91.26-.28.58-.28.23 0 .47.15.25.14.45.38.21.23.34.53.12.29.12.58v.1q0 .06-.04.17-.25 1-.69 2.09-.44 1.1-1.12 2.02-.69.91-1.65 1.52-.97.61-2.26.61-1.05 0-1.83-.45-.79-.45-1.24-1.2-.6.69-1.45 1.17t-1.98.48q-1.17 0-2.06-.47-.89-.47-1.5-1.28-.6-.81-.91-1.92-.3-1.1-.3-2.37 0-2.5.8-4.49.8-1.99 2.13-3.39 1.33-1.4 3.04-2.14 1.71-.74 3.54-.74.82 0 1.33.45.51.45.51 1.23 0 .51-.11.71-.11.21-.4.21-.27 0-.56-.04-.3-.04-.61-.04-1.13 0-2.31.5-1.17.49-2.11 1.52-.95 1.02-1.56 2.6-.6 1.57-.6 3.74 0 1.58.6 2.43.61.85 1.66.85.82 0 1.37-.62.55-.61.88-1.45v-6.17q0-.3-.03-.49-.03-.2-.06-.33-.03-.14-.05-.25-.02-.11-.02-.2 0-.32.31-.5.3-.19.73-.19.99 0 1.58.52.59.52.59 1.24v6.6q0 .33.07.66.08.32.24.58.15.27.42.43.26.17.61.17"></path><rect width="17.03" height="16.8" x="-8.52" y="-8.4" fill="none" rx="0" ry="0" transform="translate(347.7 172.28)"></rect><path d="M356.552 167.23q.22-.41.42-1.11.21-.69.39-1.53.19-.84.35-1.76.15-.92.27-1.8.12-.87.18-1.65.07-.77.07-1.31 0-2-.29-2.92-.29-.93-.78-.93-.16 0-.28.15-.11.16-.19.4-.08.25-.11.53-.03.29-.03.52Zm5.69 6.03q.11-.58.36-.85.24-.26.52-.29.29-.03.58.14.29.16.51.43.21.28.32.62.11.34.03.67-.27.8-.78 1.88-.51 1.07-1.29 2.03-.78.96-1.84 1.62-1.05.67-2.42.67-1.15 0-2.03-.39-.88-.38-1.47-1.07-.6-.69-.9-1.66-.3-.97-.3-2.16v-18.2q0-1.11.28-2.06t.78-1.62q.5-.68 1.16-1.06.67-.38 1.41-.38.88 0 1.48.32.61.33 1 .85.39.53.61 1.21.23.69.33 1.4.09.71.11 1.41.02.69.02 1.26 0 1.46-.27 3.07-.27 1.61-.69 3.18-.42 1.56-.92 2.99-.5 1.44-.96 2.55-.46 1.12-.82 1.82-.36.7-.5.82v2.32q0 1.22.51 1.99t1.62.77q.69 0 1.28-.42.6-.42 1.06-1.06.45-.63.77-1.38.31-.75.45-1.42"></path><rect width="11.09" height="28.6" x="-5.54" y="-14.3" fill="none" rx="0" ry="0" transform="translate(359.57 166.38)"></rect></svg></svg>