<svg xmlns="http://www.w3.org/2000/svg" version="1.1" xmlns:xlink="http://www.w3.org/1999/xlink" width="1500" height="238" viewBox="0 0 1500 238"><svg xml:space="preserve" width="1500" height="238" data-version="2" data-id="lg_04B8qlaNPKdEnc0rd7" viewBox="0 0 580 238" x="0" y="0"><rect width="100%" height="100%" fill="transparent"></rect><path fill="#111" d="M184.832 65.935a4.358 4.358 0 0 0-3.72-2.063h-43.905V46.31h21.952a4.398 4.398 0 0 0 4.39-4.39V6.796a4.398 4.398 0 0 0-4.39-4.39H45.01a4.398 4.398 0 0 0-4.39 4.39V41.92a4.398 4.398 0 0 0 4.39 4.39h21.952v17.562H22.794c-1.52 0-2.933.79-3.732 2.08L5.51 87.914v19.863c0 7.138 4.021 13.17 8.78 13.17 7.262 0 13.172-5.906 13.172-13.17 0-2.415 1.967-4.39 4.39-4.39s4.39 1.975 4.39 4.39c0 7.264 5.91 13.17 13.172 13.17s13.171-5.906 13.171-13.17c0-2.415 1.967-4.39 4.39-4.39s4.39 1.975 4.39 4.39c0 7.264 5.91 13.17 13.172 13.17s13.171-5.906 13.171-13.17c0-2.415 1.967-4.39 4.39-4.39s4.391 1.975 4.391 4.39c0 7.264 5.907 13.17 13.171 13.17s13.171-5.906 13.171-13.17c0-2.415 1.976-4.39 4.39-4.39s4.391 1.975 4.391 4.39c0 7.264 5.907 13.17 13.171 13.17s13.172-5.906 13.172-13.17c0-2.415 1.975-4.39 4.39-4.39s4.39 1.975 4.39 4.39c0 6.067 2.874 13.17 10.976 13.17s10.976-7.103 10.976-13.17V88.089zM75.748 63.872V46.31h52.685v17.562z"></path><path fill="#111" d="M40.625 186.803h122.931v-59.754c-2.704 1.291-5.646 2.15-8.78 2.15-7.166 0-13.55-3.194-17.562-8.535-4.013 5.32-10.388 8.927-17.562 8.927a21.89 21.89 0 0 1-17.561-8.728c-4.013 5.341-10.388 8.827-17.562 8.827a21.92 21.92 0 0 1-17.561-8.78 21.934 21.934 0 0 1-17.562 8.798c-3.135 0-6.076-.755-8.78-1.943z"></path><path fill="#111" d="M172.328 121.043v70.15a4.398 4.398 0 0 1-4.39 4.39H36.226a4.398 4.398 0 0 1-4.39-4.39V120.93c-4.013 5.33-10.388 8.799-17.562 8.799v79.027a4.398 4.398 0 0 0 4.39 4.39H185.5a4.398 4.398 0 0 0 4.39-4.39v-78.342c-6.533.002-13.909-4.472-17.562-9.37"></path><path d="M294.19 87.654q-1.71 2.85-3.65 5.35-1.93 2.49-4.05 4.35-2.12 1.85-4.38 2.9-2.26 1.04-4.62 1.04-1.18 0-2.5-.48-1.31-.48-2.41-1.58-1.11-1.1-1.83-2.93-.73-1.83-.73-4.57v-61.93q-3.7.49-7 2.1-3.31 1.61-5.75 4.4-2.45 2.8-3.87 6.77-1.42 3.98-1.42 9.19 0 3.33.7 5.98.69 2.66 1.66 4.52.97 1.85 1.93 2.87.97 1.02 1.51 1.02.48 0 .91-.21.43-.22.86-.22.86 0 .86 1.34 0 1.72-.78 3.31-.78 1.58-1.96 2.57-1.18 1-2.58 1.27-1.39.27-2.58-.59-1.45-.97-3.08-2.96-1.64-1.99-3.01-4.8-1.37-2.82-2.26-6.37-.88-3.54-.88-7.73 0-5.8 1.39-10.4 1.4-4.59 3.74-8.03 2.33-3.43 5.45-5.85 3.11-2.42 6.55-3.92 3.44-1.51 6.98-2.18 3.55-.67 6.77-.67.86 0 1.67.35.8.35 1.39.97.59.61.97 1.47.37.86.37 1.83v65.26q0 1.07.35 1.31.35.25.67.25.81 0 2.21-1.16 1.39-1.15 3.03-3.06 1.64-1.91 3.3-4.4 1.67-2.5 3.01-5.19 1.35-2.68 2.2-5.37.86-2.68.86-5.05v-41.78q0-1.56-.21-2.26-.22-.7-.22-1.29 0-.8.84-1.34.83-.54 2.01-.54 2.74 0 4.46 1.42 1.72 1.43 1.72 3.47v47.69q0 5.43.08 9.38.08 3.94.24 6.76.16 2.82.32 4.73.16 1.91.32 3.25.33.48.33.75 0 .54-.54 1.02-.54.49-1.34.84-.81.34-1.8.56-1 .21-1.91.21-1.45 0-2.25-.83-.81-.83-1.21-2.52-.41-1.69-.57-4.22-.16-2.52-.27-5.85Z"></path><rect width="60.8" height="80.08" x="-30.4" y="-40.04" fill="none" rx="0" ry="0" transform="translate(274.18 61.75)"></rect><path d="M312.94 61.604q0-1.56-.24-2.25-.24-.7-.24-1.29 0-.81.86-1.32.85-.51 2.04-.51 2.74 0 4.32 1.42 1.58 1.43 1.58 3.41v4.95q1.13-2.31 2.45-4.3 1.31-1.99 2.85-3.47 1.53-1.47 3.27-2.3 1.75-.84 3.79-.84 2.74 0 4.51 1.02 1.77 1.02 2.79 2.63 1.02 1.62 1.43 3.6.4 1.99.4 3.87v22.77q0 .38.05 1.21.06.84.32 1.69.27.86.84 1.51.56.64 1.64.64 1.66 0 2.87-1.18 1.21-1.18 2.09-2.95.89-1.78 1.45-3.84.57-2.07.94-3.9.33-1.72 1.08-2.49.75-.78 1.56-.78.64 0 1.34.4.7.4 1.26 1.05.56.64.91 1.45.35.8.35 1.61v.27q0 .16-.1.48-.7 2.74-1.91 5.75t-3.12 5.53q-1.9 2.52-4.53 4.19-2.64 1.66-6.18 1.66-2.2 0-3.9-.83-1.69-.83-2.9-2.23-1.2-1.39-1.82-3.27-.62-1.88-.62-3.98v-22.34q0-1.29-.05-2.42-.06-1.13-.3-1.99-.24-.86-.7-1.37-.45-.51-1.26-.51-1.18 0-2.9 1.61-1.72 1.62-3.38 4.19-1.67 2.58-2.93 5.83-1.26 3.25-1.59 6.53v16.06q0 .8-.02 1.64-.03.83-.32 1.5-.3.67-.92 1.13-.62.45-1.8.45-.8 0-1.74-.18-.94-.19-1.72-.7t-1.29-1.45q-.51-.94-.51-2.5Z"></path><rect width="46.99" height="46.19" x="-23.5" y="-23.09" fill="none" rx="0" ry="0" transform="translate(336.45 78.7)"></rect><path d="M360.96 65.684q.59-1.12 1.15-3.03.57-1.91 1.08-4.22.51-2.31.94-4.83.43-2.53.75-4.94.32-2.42.51-4.54t.19-3.63q0-5.48-.81-8.03-.81-2.55-2.15-2.55-.43 0-.75.43t-.54 1.1q-.21.67-.29 1.45-.08.78-.08 1.43Zm15.63 16.6q.32-1.61.99-2.34.67-.72 1.45-.8.78-.08 1.59.37.8.46 1.39 1.21.59.75.89 1.69.29.94.08 1.86-.75 2.2-2.15 5.15-1.4 2.96-3.54 5.59-2.15 2.63-5.05 4.46-2.9 1.82-6.66 1.82-3.17 0-5.59-1.04-2.42-1.05-4.05-2.96-1.64-1.9-2.48-4.56-.83-2.66-.83-5.94v-50.06q0-3.06.78-5.66.78-2.61 2.15-4.46 1.37-1.85 3.19-2.9 1.83-1.05 3.87-1.05 2.42 0 4.08.89 1.67.88 2.74 2.33 1.08 1.45 1.7 3.33.61 1.88.88 3.84t.32 3.87q.06 1.91.06 3.47 0 4.02-.75 8.46-.76 4.43-1.91 8.72-1.16 4.3-2.53 8.25-1.37 3.95-2.63 7.01-1.26 3.06-2.25 4.99-1 1.94-1.37 2.26v6.39q0 3.33 1.39 5.45 1.4 2.12 4.46 2.12 1.88 0 3.52-1.15 1.64-1.16 2.9-2.9 1.26-1.75 2.12-3.82.86-2.06 1.24-3.89"></path><rect width="30.5" height="78.63" x="-15.25" y="-39.31" fill="none" rx="0" ry="0" transform="translate(368.38 62.48)"></rect><path d="M382.66 45.334q-1.35 0-2.56-.54-1.2-.54-2.09-1.45-.89-.91-1.42-2.12-.54-1.21-.54-2.61 0-1.45.54-2.68.53-1.24 1.42-2.12.89-.89 2.09-1.4 1.21-.51 2.56-.51 1.45 0 2.68.51 1.24.51 2.12 1.4.89.88 1.4 2.12.51 1.23.51 2.68 0 1.4-.51 2.61t-1.4 2.12q-.88.91-2.12 1.45-1.23.54-2.68.54m2.52 43.66q0 .38.05 1.21.06.84.33 1.69.27.86.86 1.51.59.64 1.66.64 1.61 0 2.82-1.18 1.21-1.18 2.1-2.95.88-1.78 1.47-3.84.59-2.07.97-3.9.32-1.66.99-2.41.67-.76 1.45-.84.78-.08 1.56.41.78.48 1.4 1.26.62.78.91 1.74.3.97.08 1.83-.75 2.74-1.96 5.75t-3.09 5.53q-1.88 2.52-4.51 4.19-2.63 1.66-6.18 1.66-2.2 0-3.92-.83-1.72-.83-2.9-2.23-1.18-1.39-1.8-3.27-.61-1.88-.61-3.98v-29.38q0-1.56-.25-2.25-.24-.7-.24-1.29 0-.81.86-1.32t2.04-.51q2.74 0 4.33 1.42 1.58 1.43 1.58 3.41Z"></path><rect width="25.94" height="69.39" x="-12.97" y="-34.7" fill="none" rx="0" ry="0" transform="translate(389.52 67.1)"></rect><path d="M461.5 84.164q-.75 2.74-1.96 5.75t-3.08 5.53q-1.88 2.52-4.52 4.19-2.63 1.66-6.17 1.66-2.21 0-3.9-.83t-2.9-2.23q-1.21-1.39-1.82-3.27-.62-1.88-.62-3.98v-22.34q0-1.29-.06-2.42-.05-1.13-.26-1.99-.22-.86-.62-1.37-.4-.51-1.1-.51-1.13 0-2.74 1.61-1.61 1.62-3.12 4.19-1.5 2.58-2.68 5.83-1.18 3.25-1.4 6.53v16.06q0 .8-.03 1.64-.02.83-.32 1.5-.29.67-.91 1.13-.62.45-1.8.45-.81 0-1.75-.18-.94-.19-1.72-.7-.77-.51-1.28-1.45t-.51-2.5v-27.82q0-1.29-.08-2.42-.09-1.13-.3-1.99-.22-.86-.62-1.37-.4-.51-1.1-.51-1.13 0-2.71 1.61-1.59 1.62-3.12 4.19-1.53 2.58-2.68 5.83-1.16 3.25-1.43 6.53v16.06q0 .8-.02 1.64-.03.83-.32 1.5-.3.67-.92 1.13-.62.45-1.8.45-.8 0-1.74-.18-.94-.19-1.72-.7t-1.29-1.45q-.51-.94-.51-2.5v-34.86q0-1.56-.24-2.25-.24-.7-.24-1.29 0-.81.86-1.32.85-.51 2.04-.51 2.74 0 4.32 1.42 1.58 1.43 1.58 3.41v4.62q1.08-2.25 2.34-4.19 1.26-1.93 2.71-3.35 1.45-1.43 3.09-2.23 1.64-.81 3.52-.81 2.47 0 4.11.92 1.64.91 2.63 2.41.99 1.51 1.42 3.36.43 1.85.54 3.68 1.02-2.2 2.26-4.08 1.23-1.88 2.68-3.28 1.45-1.4 3.09-2.2 1.64-.81 3.52-.81 2.68 0 4.4 1.02 1.72 1.02 2.69 2.63.97 1.62 1.34 3.6.38 1.99.38 3.87v22.77q0 .38.05 1.21.05.84.32 1.69.27.86.84 1.51.56.64 1.63.64 1.67 0 2.88-1.18t2.09-2.95q.89-1.78 1.48-3.84.59-2.07.97-3.9.32-1.72 1.04-2.49.73-.78 1.59-.78.64 0 1.31.4.68.4 1.24 1.05.56.64.91 1.45.35.8.35 1.61v.27q0 .16-.11.48"></path><rect width="66.22" height="46.19" x="-33.11" y="-23.09" fill="none" rx="0" ry="0" transform="translate(429 78.7)"></rect><path d="M461.4 45.334q-1.35 0-2.55-.54-1.21-.54-2.1-1.45-.89-.91-1.42-2.12-.54-1.21-.54-2.61 0-1.45.54-2.68.53-1.24 1.42-2.12.89-.89 2.1-1.4 1.2-.51 2.55-.51 1.45 0 2.68.51 1.24.51 2.12 1.4.89.88 1.4 2.12.51 1.23.51 2.68 0 1.4-.51 2.61t-1.4 2.12q-.88.91-2.12 1.45-1.23.54-2.68.54m2.52 43.66q0 .38.05 1.21.06.84.33 1.69.27.86.86 1.51.59.64 1.66.64 1.61 0 2.82-1.18 1.21-1.18 2.1-2.95.88-1.78 1.47-3.84.59-2.07.97-3.9.32-1.66.99-2.41.67-.76 1.45-.84.78-.08 1.56.41.78.48 1.4 1.26.62.78.91 1.74.3.97.08 1.83-.75 2.74-1.96 5.75t-3.09 5.53q-1.88 2.52-4.51 4.19-2.63 1.66-6.18 1.66-2.2 0-3.92-.83-1.72-.83-2.9-2.23-1.18-1.39-1.8-3.27-.61-1.88-.61-3.98v-29.38q0-1.56-.25-2.25-.24-.7-.24-1.29 0-.81.86-1.32t2.04-.51q2.74 0 4.33 1.42 1.58 1.43 1.58 3.41Z"></path><rect width="25.94" height="69.39" x="-12.97" y="-34.7" fill="none" rx="0" ry="0" transform="translate(468.26 67.1)"></rect><path d="M464.67 46.514q1.24.11 2.74.16 1.29.11 3.12.13 1.82.03 4.08.08v-18.63q0-1.18-.19-1.88t-.37-1.1q-.19-.41-.38-.65-.19-.24-.19-.51 0-.32.32-.54.33-.21.86-.37.54-.16 1.16-.24.62-.08 1.21-.08 2.74 0 4.32 1.42t1.58 3.41v19.28q5.05 0 10.67-.11 5.61-.1 11.25-.37.75-.81 1.21-.59.45.21.59 1.02.13.8.02 1.99-.1 1.18-.42 2.28-.33 1.1-.89 1.91-.57.8-1.26.8-6.61.16-11.69.19-5.07.03-9.48.03v34.85q0 2.69 1.03 3.87 1.02 1.18 2.73 1.18 1.67 0 2.88-1.18t2.09-2.95q.89-1.78 1.45-3.84.57-2.07.94-3.9.32-1.72 1.08-2.49.75-.78 1.55-.78.65 0 1.35.4.7.4 1.26 1.05.56.64.91 1.45.35.8.35 1.61v.27q0 .16-.11.48-.69 2.74-1.9 5.75t-3.12 5.53q-1.9 2.52-4.54 4.19-2.63 1.66-6.17 1.66-2.21 0-4.06-.67-1.85-.67-3.19-2.15-1.35-1.47-2.1-3.78-.75-2.31-.75-5.59v-34.96q-1.83 0-3.25-.03t-2.39-.08q-1.13-.06-1.99-.11-1.29 0-2.28-1.15-.99-1.16-1.4-2.56-.4-1.39-.1-2.55.29-1.15 1.47-1.15"></path><rect width="43.76" height="78.41" x="-21.88" y="-39.2" fill="none" rx="0" ry="0" transform="translate(485.37 62.59)"></rect><path d="M519.83 66.224q0 3.06-1.04 6.28-1.05 3.23-3.12 6.1-2.07 2.87-5.1 5.16-3.04 2.28-7.01 3.46.54 1.4 1.42 2.66.89 1.26 2.12 2.18 1.24.91 2.88 1.45 1.64.53 3.78.53 3.23 0 5.54-1.21 2.31-1.2 3.89-3.19 1.59-1.99 2.55-4.46.97-2.47 1.45-4.99.38-1.83 1.53-2.45 1.16-.62 2.37-.29 1.2.32 2.09 1.37.89 1.04.73 2.49-.22 1.67-.73 3.82t-1.53 4.35q-1.02 2.2-2.6 4.32-1.59 2.12-3.9 3.79-2.31 1.66-5.42 2.68-3.12 1.02-7.15 1.02-3.76 0-7.27-1.47-3.52-1.48-6.24-4.25-2.71-2.76-4.35-6.82-1.63-4.05-1.63-9.21 0-5.21 1.45-9.69 1.45-4.49 3.81-7.76 2.36-3.28 5.37-5.13 3.01-1.86 6.18-1.86 2.31 0 4.16.81 1.85.8 3.14 2.28 1.29 1.48 1.96 3.52.67 2.04.67 4.51m-17.72 13q0 .48.05.97.06.48.06 1.02 2.04-.97 3.7-2.47 1.67-1.51 2.85-3.44 1.18-1.94 1.83-4.22.64-2.28.64-4.75 0-1.83-.62-2.85t-1.69-1.02q-1.34 0-2.39.91-1.05.92-1.83 2.39-.77 1.48-1.28 3.33-.51 1.86-.84 3.74-.32 1.88-.43 3.57-.1 1.69-.05 2.82"></path><rect width="40.9" height="46.19" x="-20.45" y="-23.09" fill="none" rx="0" ry="0" transform="translate(514.04 78.7)"></rect><path d="M539.49 101.294q-3.22 0-5.85-1.12-2.63-1.13-4.49-3.36-1.85-2.23-2.84-5.53-1-3.31-1-7.66 0-6.33 1.77-11.3 1.78-4.97 4.84-8.54 3.06-3.57 7.09-5.7 4.03-2.12 8.54-2.76v-24.87q0-1.18-.19-1.88t-.38-1.1q-.18-.4-.37-.65-.19-.24-.19-.51 0-.32.32-.53.33-.22.86-.38.54-.16 1.16-.24.61-.08 1.21-.08 2.74 0 4.32 1.42t1.58 3.41v59.08q0 .92.22 1.8.21.89.67 1.61.46.73 1.18 1.19.73.45 1.69.45 1.67 0 2.88-1.18t2.09-2.95q.89-1.78 1.45-3.84.57-2.07.94-3.9.32-1.72 1.08-2.49.75-.78 1.55-.78.65 0 1.35.4.7.4 1.26 1.05.56.64.91 1.45.35.8.35 1.61v.27q0 .16-.11.48-.69 2.74-1.9 5.75t-3.12 5.53q-1.9 2.52-4.54 4.19-2.63 1.66-6.17 1.66-2.85 0-5-1.18t-3.38-3.11q-1.83 1.88-4.22 3.09-2.39 1.2-5.56 1.2m1.67-7.25q2.15 0 3.73-1.23 1.58-1.24 2.66-3.06v-27.18q-2.69.48-5.18 1.8-2.5 1.31-4.41 3.68-1.91 2.36-3.03 5.99-1.13 3.62-1.13 8.78 0 3.01.62 5.13.61 2.12 1.61 3.46.99 1.34 2.33 1.99 1.35.64 2.8.64"></path><rect width="48.18" height="76.21" x="-24.09" y="-38.1" fill="none" rx="0" ry="0" transform="translate(549.9 63.69)"></rect><path d="M263.53 195.434q-3.5 0-5.81-.78-2.3-.78-3.65-1.74-1.34-.97-1.88-1.86-.53-.88-.53-1.15 0-.97.42-2.07.43-1.1 1.08-2.04.64-.94 1.4-1.58.75-.65 1.34-.65.75 0 1.23.97l.54.54q.43.43 1.21.88.78.46 1.93.83 1.16.38 2.72.38 3.38 0 5.53-2.07 2.15-2.07 2.15-5.61 0-2.47-1.16-4.4-1.15-1.94-3.03-3.6-1.88-1.67-4.3-3.25-2.42-1.59-4.94-3.31-2.53-1.71-4.94-3.7-2.42-1.99-4.3-4.57t-3.03-5.82q-1.16-3.25-1.16-7.44 0-3.6 1.24-7.25 1.23-3.66 3.41-6.96 2.17-3.3 5.13-6.18 2.95-2.87 6.39-4.99 3.44-2.12 7.17-3.33t7.49-1.21q3.22 0 5.8 1.02 2.58 1.02 4.35 2.87 1.77 1.86 2.74 4.46.97 2.61.97 5.83 0 3.06-1.08 6.01-1.07 2.96-2.84 5.59-1.78 2.63-4 4.86-2.23 2.23-4.57 3.87-2.34 1.64-4.54 2.55-2.2.91-3.87.91-1.45 0-2.6-.67-1.16-.67-1.93-1.66-.78-1-1.21-2.1-.43-1.1-.43-1.96 0-.7.19-.91.18-.22.53-.19.35.03.89.16.54.14 1.23.14 2.26 0 5-1.56t5.16-3.98q2.41-2.41 4.05-5.31 1.64-2.9 1.64-5.64 0-2.8-1.37-4.41-1.37-1.61-4.65-1.61-2.04 0-4.43.78-2.39.78-4.8 2.17-2.42 1.4-4.68 3.39-2.25 1.99-3.97 4.38-1.72 2.39-2.77 5.15-1.05 2.77-1.05 5.78 0 3.17 1.16 5.66 1.15 2.5 3.06 4.54 1.91 2.04 4.32 3.76 2.42 1.72 4.95 3.41 2.52 1.69 4.94 3.49 2.41 1.8 4.32 3.98 1.91 2.17 3.06 4.83 1.16 2.66 1.16 6.1 0 3.33-1.26 6.31-1.27 2.98-3.47 5.18-2.2 2.2-5.21 3.49t-6.44 1.29"></path><rect width="44.69" height="81.96" x="-22.34" y="-40.98" fill="none" rx="0" ry="0" transform="translate(267.2 154.95)"></rect><path d="M291.78 123.674q0-1.18-.19-1.88-.19-.69-.38-1.1-.18-.4-.37-.64t-.19-.51q0-.32.32-.54.32-.21.86-.37.54-.17 1.16-.25.61-.08 1.2-.08 2.74 0 4.33 1.43 1.58 1.42 1.58 3.41v36.09q1.13-2.31 2.45-4.3 1.31-1.98 2.84-3.46 1.53-1.48 3.28-2.31 1.75-.83 3.79-.83 2.74 0 4.51 1.02 1.77 1.02 2.79 2.63 1.02 1.61 1.42 3.6.41 1.99.41 3.87v22.77q0 .38.05 1.21t.32 1.69q.27.86.84 1.5.56.65 1.63.65 1.67 0 2.88-1.18 1.21-1.19 2.09-2.96.89-1.77 1.45-3.84.57-2.07.94-3.89.32-1.67 1-2.42.67-.75 1.45-.83.77-.08 1.58.4.81.48 1.4 1.26.59.78.88 1.75.3.97.08 1.83-.75 2.73-1.96 5.74-1.21 3.01-3.09 5.53-1.88 2.53-4.51 4.19-2.63 1.67-6.17 1.67-2.21 0-3.9-.83-1.69-.84-2.9-2.23-1.21-1.4-1.82-3.28-.62-1.88-.62-3.97v-22.35q0-1.29-.06-2.41-.05-1.13-.29-1.99-.24-.86-.7-1.37-.46-.51-1.26-.51-1.18 0-2.9 1.61t-3.39 4.19q-1.66 2.58-2.92 5.83-1.27 3.25-1.59 6.52v16.06q0 .81-.02 1.64-.03.83-.33 1.5-.29.68-.91 1.13-.62.46-1.8.46-.8 0-1.74-.19t-1.72-.7q-.78-.51-1.29-1.45t-.51-2.49Z"></path><rect width="47.69" height="76.22" x="-23.84" y="-38.11" fill="none" rx="0" ry="0" transform="translate(315 156.91)"></rect><path d="M372.5 173.304q.11-.64.73-1.07.62-.43 1.42-.59.81-.16 1.7 0 .88.16 1.55.72.67.57.97 1.56.3.99-.08 2.55-.48 2.26-1.59 4.22-1.1 1.96-2.76 3.46-1.67 1.51-3.92 2.37-2.26.86-5.05.86-1.51 0-2.82-.17-1.32-.16-2.55-.59-2.04 3.55-5.27 5.72-3.22 2.18-7.95 2.18-4.18 0-7.19-1.64-3.01-1.64-5-4.46-1.98-2.82-2.92-6.52-.94-3.71-.94-7.84 0-6.07 1.42-10.88 1.42-4.81 3.3-8.17 1.88-3.35 3.73-5.12 1.86-1.78 2.77-1.78 1.07 0 1.96.94.89.94 1.29 2.2.4 1.27.22 2.56-.19 1.29-1.27 1.98-.64 1.02-1.53 2.37-.88 1.34-1.66 3.35-.78 2.02-1.32 4.92t-.54 6.98q0 3.49.62 6.07t1.72 4.32q1.1 1.75 2.52 2.61 1.43.86 3.04.86 2.36 0 3.89-1.16 1.53-1.15 2.61-3.03-3.87-3.33-5.88-8.46-2.02-5.13-2.02-11.09 0-2.58.57-4.92.56-2.33 1.66-4.11 1.1-1.77 2.77-2.82 1.66-1.04 3.87-1.04 1.93 0 3.65 1.39 1.72 1.4 3.01 3.87 1.28 2.47 2.01 5.86.72 3.38.72 7.35 0 3.07-.37 6.07-.38 3.01-1.18 5.8.59.22 1.1.25.51.02 1.1.02 1.77 0 3.14-.64 1.37-.65 2.34-1.72.96-1.08 1.56-2.53.59-1.45.85-3.06m-21-10.2q0 3.7 1.16 7.03 1.15 3.33 3.03 5.81.33-2.64.33-5.05 0-2.8-.08-5.19-.09-2.39-.38-4.11-.3-1.71-.81-2.71-.51-.99-1.37-.99-1.88 0-1.88 5.21"></path><rect width="48.26" height="46.41" x="-24.13" y="-23.2" fill="none" rx="0" ry="0" transform="translate(355.46 171.82)"></rect><path d="M386.2 195.654q-2.04 0-3.33-.46t-1.99-1.21v35.77q0 1.51-.59 2.45-.59.94-1.47 1.47-.89.54-1.91.73-1.02.19-1.83.19-1.66 0-2.09-.86-.43-.86-.43-2.1v-76.8q0-1.18-.19-1.88t-.38-1.1q-.18-.41-.37-.65-.19-.24-.19-.56 0-.27.32-.49.33-.21.86-.37.54-.16 1.16-.24.61-.08 1.21-.08 2.63 0 4.21 1.42 1.59 1.42 1.69 3.3 1.72-2.52 4.14-4.19 2.42-1.66 5.91-1.66 3.22 0 5.61 1.5 2.39 1.51 3.98 4.11 1.58 2.61 2.36 6.15.78 3.55.78 7.63 0 4.62-.81 8.83-.8 4.22-2.04 7.23 2.74-.16 4.51-.76 1.77-.59 2.98-1.63 1.21-1.05 2.1-2.55.88-1.51 1.85-3.44.75-1.56 1.26-2.26.51-.7 1.27-.7.69 0 1.42.43.72.43 1.29 1.08.56.64.91 1.37.35.72.35 1.31 0 1.88-1.29 4.3t-3.95 4.57q-2.66 2.14-6.71 3.62-4.06 1.48-9.53 1.48-2.26 2.42-5.21 3.73-2.96 1.32-5.86 1.32m1.93-39.96q-1.18 0-2.28.69-1.1.7-2.07 1.91-.96 1.21-1.69 2.93-.72 1.72-1.21 3.7v23.8q1.19-1.72 3.87-2.63 2.69-.92 6.5-1.24.97-1.45 1.69-3.46.73-2.02 1.21-4.17.48-2.14.73-4.19.24-2.04.24-3.59 0-3.76-.57-6.4-.56-2.63-1.53-4.27-.96-1.63-2.23-2.36-1.26-.72-2.66-.72"></path><rect width="47.32" height="86.26" x="-23.66" y="-43.13" fill="none" rx="0" ry="0" transform="translate(395.59 191.96)"></rect><path d="M437.55 159.454q0 3.06-1.05 6.28t-3.11 6.1q-2.07 2.87-5.11 5.15-3.03 2.29-7.01 3.47.54 1.39 1.43 2.66.88 1.26 2.12 2.17 1.23.91 2.87 1.45 1.64.54 3.79.54 3.22 0 5.53-1.21t3.9-3.2q1.58-1.98 2.55-4.45.96-2.47 1.45-5 .37-1.83 1.53-2.44 1.15-.62 2.36-.3t2.1 1.37q.88 1.05.72 2.5-.21 1.66-.72 3.81-.51 2.15-1.53 4.35-1.03 2.2-2.61 4.33-1.58 2.12-3.89 3.78-2.31 1.67-5.43 2.69-3.11 1.02-7.14 1.02-3.76 0-7.28-1.48-3.52-1.48-6.23-4.24-2.71-2.77-4.35-6.82-1.64-4.06-1.64-9.21 0-5.21 1.45-9.7 1.45-4.48 3.81-7.76 2.37-3.28 5.38-5.13 3-1.85 6.17-1.85 2.31 0 4.16.8 1.86.81 3.15 2.29 1.29 1.47 1.96 3.51.67 2.05.67 4.52m-17.73 12.99q0 .49.06.97.05.48.05 1.02 2.04-.97 3.71-2.47 1.66-1.5 2.84-3.44 1.19-1.93 1.83-4.21.65-2.29.65-4.76 0-1.82-.62-2.84-.62-1.02-1.69-1.02-1.35 0-2.39.91-1.05.91-1.83 2.39t-1.29 3.33q-.51 1.85-.83 3.73-.32 1.88-.43 3.57-.11 1.7-.06 2.82"></path><rect width="40.9" height="46.19" x="-20.45" y="-23.09" fill="none" rx="0" ry="0" transform="translate(431.75 171.93)"></rect><path d="M470.21 159.454q0 3.06-1.05 6.28t-3.12 6.1q-2.07 2.87-5.1 5.15-3.03 2.29-7.01 3.47.54 1.39 1.42 2.66.89 1.26 2.13 2.17 1.23.91 2.87 1.45 1.64.54 3.79.54 3.22 0 5.53-1.21t3.89-3.2q1.59-1.98 2.55-4.45.97-2.47 1.45-5 .38-1.83 1.53-2.44 1.16-.62 2.37-.3 1.21.32 2.09 1.37.89 1.05.73 2.5-.22 1.66-.73 3.81-.51 2.15-1.53 4.35-1.02 2.2-2.6 4.33-1.59 2.12-3.9 3.78-2.31 1.67-5.42 2.69-3.12 1.02-7.15 1.02-3.76 0-7.27-1.48-3.52-1.48-6.23-4.24-2.72-2.77-4.35-6.82-1.64-4.06-1.64-9.21 0-5.21 1.45-9.7 1.45-4.48 3.81-7.76 2.36-3.28 5.37-5.13 3.01-1.85 6.18-1.85 2.31 0 4.16.8 1.85.81 3.14 2.29 1.29 1.47 1.96 3.51.68 2.05.68 4.52m-17.73 12.99q0 .49.05.97.06.48.06 1.02 2.04-.97 3.7-2.47 1.67-1.5 2.85-3.44 1.18-1.93 1.83-4.21.64-2.29.64-4.76 0-1.82-.62-2.84-.61-1.02-1.69-1.02-1.34 0-2.39.91t-1.82 2.39q-.78 1.48-1.29 3.33t-.84 3.73q-.32 1.88-.43 3.57-.1 1.7-.05 2.82"></path><rect width="40.9" height="46.19" x="-20.45" y="-23.09" fill="none" rx="0" ry="0" transform="translate(464.41 171.93)"></rect></svg></svg>