<svg xmlns="http://www.w3.org/2000/svg" xmlns:xlink="http://www.w3.org/1999/xlink" viewBox="0,0,256,256" width="48px" height="48px" fill-rule="nonzero"><g fill="#070707" fill-rule="nonzero" stroke="none" stroke-width="1" stroke-linecap="butt" stroke-linejoin="miter" stroke-miterlimit="10" stroke-dasharray="" stroke-dashoffset="0" font-family="none" font-weight="none" font-size="none" text-anchor="none" style="mix-blend-mode: normal"><g transform="scale(10.66667,10.66667)"><path d="M22.57,4.543c-0.29,-0.31 -0.7,-0.49 -1.13,-0.49h-4.54c-0.46,-2.28 -2.48,-4.01 -4.9,-4.01c-2.42,0 -4.44,1.73 -4.9,4.01h-4.54c-0.43,0 -0.84,0.18 -1.13,0.49c-0.29,0.31 -0.45,0.73 -0.43,1.149l0.71,15.25c0.08,1.74 1.5,3.1 3.23,3.1h14.12c1.73,0 3.15,-1.36 3.23,-3.1l0.71,-15.25c0.02,-0.419 -0.14,-0.839 -0.43,-1.149zM12,2.043c1.31,0 2.41,0.84 2.82,2.01h-5.64c0.41,-1.171 1.51,-2.01 2.82,-2.01zM11.97,20.003c-1.49,0 -2.71,-0.63 -3.46,-1.14c-0.47,-0.32 -0.59,-0.95 -0.29,-1.42l0.02,-0.04c0.31,-0.5 0.96,-0.64 1.45,-0.33c0.68,0.41 1.62,0.9 2.28,0.9c1.12,0 2.06,-0.62 2.06,-1.35c0,-0.92 -0.6,-1.29 -2.41,-1.95c-1.55,-0.57 -3.46,-1.27 -3.46,-3.43c0,-1.88 1.67,-3.3 3.88,-3.3c1.32,0 2.3,0.39 2.94,0.76c0.51,0.29 0.67,0.95 0.36,1.45c-0.2,0.33 -0.55,0.51 -0.9,0.51c-0.17,0 -0.34,-0.04 -0.49,-0.12c-0.55,-0.29 -1.27,-0.58 -1.91,-0.58c-1.08,0 -1.86,0.54 -1.86,1.28c0,0.64 0.56,0.96 2.13,1.53c1.58,0.57 3.75,1.36 3.75,3.85c0,1.9 -1.8,3.38 -4.09,3.38z"></path></g></g><g fill="#fffefe" fill-rule="nonzero" stroke="none" stroke-width="1" stroke-linecap="butt" stroke-linejoin="miter" stroke-miterlimit="10" stroke-dasharray="" stroke-dashoffset="0" font-family="none" font-weight="none" font-size="none" text-anchor="none" style="mix-blend-mode: normal"><g><path d="M40.34667,222.26167h3.75v1.32l-1.69,0.29v8.67c0,1.14667 0.32333,2.01667 0.97,2.61c0.65333,0.59333 1.51667,0.89 2.59,0.89v0c1.12667,0 2.03333,-0.29667 2.72,-0.89c0.68667,-0.58667 1.03,-1.45667 1.03,-2.61v0v-8.67l-1.7,-0.29v-1.32h3.75h1.7v1.32l-1.7,0.29v8.67c0,1.64667 -0.53667,2.90667 -1.61,3.78c-1.07333,0.88 -2.47,1.32 -4.19,1.32v0c-1.67333,0 -3.02667,-0.44 -4.06,-1.32c-1.04,-0.87333 -1.56,-2.13333 -1.56,-3.78v0v-8.67l-1.69,-0.29v-1.32zM54.70667,237.42167v-1.31l1.7,-0.29v-8.05l-1.7,-0.29v-1.33h3.53l0.14,1.68c0.38,-0.6 0.85333,-1.06333 1.42,-1.39c0.56,-0.33333 1.20333,-0.5 1.93,-0.5v0c1.21333,0 2.15333,0.35667 2.82,1.07c0.66667,0.71333 1,1.81333 1,3.3v0v5.51l1.7,0.29v1.31h-5.45v-1.31l1.7,-0.29v-5.47c0,-0.99333 -0.19667,-1.69667 -0.59,-2.11c-0.39333,-0.42 -0.99333,-0.63 -1.8,-0.63v0c-0.58667,0 -1.10667,0.14333 -1.56,0.43c-0.46,0.28667 -0.82333,0.67333 -1.09,1.16v0v6.62l1.7,0.29v1.31zM70.15667,222.79167l-1.7,-0.29v-1.33h3.75v14.65l1.7,0.29v1.31h-5.45v-1.31l1.7,-0.29zM75.45667,237.42167v-1.31l1.7,-0.29v-8.05l-1.7,-0.29v-1.33h3.75v9.67l1.7,0.29v1.31zM79.20667,221.17167v2.1h-2.05v-2.1zM82.05667,237.42167v-1.31l1.7,-0.29v-8.05l-1.7,-0.29v-1.33h3.54l0.14,1.47c0.36,-0.53333 0.82333,-0.94667 1.39,-1.24c0.57333,-0.29333 1.23333,-0.44 1.98,-0.44v0c0.75333,0 1.4,0.17667 1.94,0.53c0.53333,0.34667 0.93667,0.86667 1.21,1.56v0c0.35333,-0.64 0.82333,-1.14667 1.41,-1.52c0.58,-0.38 1.26,-0.57 2.04,-0.57v0c1.15333,0 2.06333,0.39667 2.73,1.19c0.66667,0.78667 1,1.97 1,3.55v0v5.14l1.69,0.29v1.31h-5.45v-1.31l1.69,-0.29v-5.16c0,-1.10667 -0.19,-1.89333 -0.57,-2.36c-0.38,-0.46 -0.94667,-0.69 -1.7,-0.69v0c-0.71333,0 -1.28667,0.25333 -1.72,0.76c-0.43333,0.5 -0.68667,1.13333 -0.76,1.9v0v5.55l1.7,0.29v1.31h-5.45v-1.31l1.7,-0.29v-5.16c0,-1.05333 -0.19667,-1.82333 -0.59,-2.31c-0.39333,-0.49333 -0.96,-0.74 -1.7,-0.74v0c-0.62667,0 -1.14,0.13 -1.54,0.39c-0.40667,0.25333 -0.71667,0.61333 -0.93,1.08v0v6.74l1.7,0.29v1.31zM102.61667,237.42167v-1.31l1.7,-0.29v-8.05l-1.7,-0.29v-1.33h3.75v9.67l1.7,0.29v1.31zM106.36667,221.17167v2.1h-2.05v-2.1zM111.16667,223.43167h2.05v2.72h2.13v1.52h-2.13v6.85c0,0.52667 0.11,0.89667 0.33,1.11c0.21333,0.21333 0.50333,0.32 0.87,0.32v0c0.18,0 0.38,-0.01333 0.6,-0.04c0.22667,-0.03333 0.41667,-0.06667 0.57,-0.1v0l0.28,1.41c-0.19333,0.12 -0.47667,0.22 -0.85,0.3c-0.37333,0.08 -0.75,0.12 -1.13,0.12v0c-0.83333,0 -1.49333,-0.25 -1.98,-0.75c-0.49333,-0.50667 -0.74,-1.29667 -0.74,-2.37v0v-6.85h-1.79v-1.52h1.79zM122.58667,237.64167v0c-1.56667,0 -2.81333,-0.52333 -3.74,-1.57c-0.92667,-1.04 -1.39,-2.39333 -1.39,-4.06v0v-0.46c0,-1.60667 0.47667,-2.94333 1.43,-4.01c0.95333,-1.06667 2.08333,-1.6 3.39,-1.6v0c1.51333,0 2.66,0.46 3.44,1.38c0.78,0.91333 1.17,2.13667 1.17,3.67v0v1.28h-7.31l-0.03,0.05c0.02,1.08 0.29333,1.97 0.82,2.67c0.53333,0.7 1.27333,1.05 2.22,1.05v0c0.69333,0 1.30333,-0.1 1.83,-0.3c0.52667,-0.2 0.98,-0.47333 1.36,-0.82v0l0.8,1.34c-0.4,0.38667 -0.93333,0.71333 -1.6,0.98c-0.66,0.26667 -1.45667,0.4 -2.39,0.4zM122.27667,227.56167v0c-0.68667,0 -1.27333,0.29 -1.76,0.87c-0.48667,0.58 -0.78667,1.30667 -0.9,2.18v0l0.02,0.05h5.2v-0.27c0,-0.80667 -0.21333,-1.48 -0.64,-2.02c-0.43333,-0.54 -1.07333,-0.81 -1.92,-0.81zM136.67667,237.42167l-0.17,-1.34c-0.36667,0.51333 -0.81667,0.90333 -1.35,1.17c-0.53333,0.26 -1.15,0.39 -1.85,0.39v0c-1.37333,0 -2.44667,-0.49667 -3.22,-1.49c-0.77333,-1 -1.16,-2.31 -1.16,-3.93v0v-0.22c0,-1.81333 0.38667,-3.27667 1.16,-4.39c0.77333,-1.11333 1.85333,-1.67 3.24,-1.67v0c0.66667,0 1.25667,0.12333 1.77,0.37c0.50667,0.24667 0.94333,0.60333 1.31,1.07v0v-4.59l-1.7,-0.29v-1.33h1.7h2.05v14.65l1.7,0.29v1.31zM130.97667,232.00167v0.22c0,1.12667 0.23333,2.03333 0.7,2.72c0.46,0.69333 1.17667,1.04 2.15,1.04v0c0.61333,0 1.12667,-0.14 1.54,-0.42c0.42,-0.28 0.76667,-0.67333 1.04,-1.18v0v-5.23c-0.26667,-0.47333 -0.61333,-0.84667 -1.04,-1.12c-0.42,-0.28 -0.92667,-0.42 -1.52,-0.42v0c-0.98,0 -1.70333,0.40667 -2.17,1.22c-0.46667,0.81333 -0.7,1.87 -0.7,3.17zM157.80667,223.91167v2.83h-1.55l-0.39,-2.17c-0.31333,-0.26667 -0.73,-0.48667 -1.25,-0.66c-0.52,-0.17333 -1.12333,-0.26 -1.81,-0.26v0c-1.08667,0 -1.92333,0.23333 -2.51,0.7c-0.58,0.46 -0.87,1.06 -0.87,1.8v0c0,0.66 0.29667,1.21 0.89,1.65c0.59333,0.44667 1.55333,0.83667 2.88,1.17v0c1.59333,0.39333 2.80667,0.97667 3.64,1.75c0.82667,0.76667 1.24,1.72 1.24,2.86v0c0,1.22 -0.49667,2.20333 -1.49,2.95c-1,0.74 -2.30333,1.11 -3.91,1.11v0c-1.16667,0 -2.20333,-0.19 -3.11,-0.57c-0.90667,-0.38 -1.64667,-0.88 -2.22,-1.5v0v-2.82h1.54l0.4,2.17c0.39333,0.32667 0.86667,0.59667 1.42,0.81c0.54667,0.20667 1.20333,0.31 1.97,0.31v0c1.03333,0 1.85,-0.22 2.45,-0.66c0.6,-0.43333 0.9,-1.02667 0.9,-1.78v0c0,-0.69333 -0.26,-1.27333 -0.78,-1.74c-0.52,-0.47333 -1.44,-0.87 -2.76,-1.19v0c-1.60667,-0.38 -2.86,-0.94 -3.76,-1.68c-0.90667,-0.74667 -1.36,-1.68333 -1.36,-2.81v0c0,-1.18667 0.50333,-2.17333 1.51,-2.96c1.00667,-0.78667 2.31667,-1.18 3.93,-1.18v0c1.06,0 2.02667,0.18 2.9,0.54c0.87333,0.36667 1.57333,0.81 2.1,1.33zM159.72667,237.42167v-1.31l1.7,-0.29v-13.03l-1.7,-0.29v-1.33h3.75v6.48c0.38667,-0.54 0.86,-0.96 1.42,-1.26c0.56667,-0.3 1.19333,-0.45 1.88,-0.45v0c1.20667,0 2.14333,0.36333 2.81,1.09c0.66667,0.72 1,1.83 1,3.33v0v5.46l1.7,0.29v1.31h-5.45v-1.31l1.7,-0.29v-5.48c0,-0.93333 -0.2,-1.62 -0.6,-2.06c-0.4,-0.44667 -0.99667,-0.67 -1.79,-0.67v0c-0.56,0 -1.07,0.13333 -1.53,0.4c-0.46,0.26667 -0.84,0.63 -1.14,1.09v0v6.72l1.7,0.29v1.31zM173.68667,231.91167v-0.23c0,-1.66667 0.45,-3.04 1.35,-4.12c0.9,-1.08 2.12667,-1.62 3.68,-1.62v0c1.55333,0 2.78333,0.54 3.69,1.62c0.90667,1.07333 1.36,2.44667 1.36,4.12v0v0.23c0,1.68 -0.45,3.05667 -1.35,4.13c-0.90667,1.06667 -2.13333,1.6 -3.68,1.6v0c-1.56667,0 -2.8,-0.53667 -3.7,-1.61c-0.9,-1.07333 -1.35,-2.44667 -1.35,-4.12zM175.73667,231.68167v0.23c0,1.19333 0.25,2.18 0.75,2.96c0.50667,0.78 1.25667,1.17 2.25,1.17v0c0.97333,0 1.71333,-0.39 2.22,-1.17c0.50667,-0.78 0.76,-1.76667 0.76,-2.96v0v-0.23c0,-1.18 -0.25333,-2.16 -0.76,-2.94c-0.50667,-0.78667 -1.25333,-1.18 -2.24,-1.18v0c-0.98667,0 -1.73,0.39333 -2.23,1.18c-0.5,0.78 -0.75,1.76 -0.75,2.94zM185.38667,241.76167v-1.33l1.7,-0.29v-12.37l-1.7,-0.29v-1.33h3.46l0.19,1.38c0.37333,-0.51333 0.83,-0.90667 1.37,-1.18c0.54,-0.27333 1.16333,-0.41 1.87,-0.41v0c1.39333,0 2.48,0.55667 3.26,1.67c0.77333,1.10667 1.16,2.57 1.16,4.39v0v0.22c0,1.62 -0.39,2.93 -1.17,3.93c-0.78,0.99333 -1.85333,1.49 -3.22,1.49v0c-0.69333,0 -1.30333,-0.11667 -1.83,-0.35c-0.52,-0.23333 -0.96667,-0.57667 -1.34,-1.03v0v3.88l1.7,0.29v1.33zM194.62667,232.22167v-0.22c0,-1.28667 -0.25,-2.34 -0.75,-3.16c-0.5,-0.82 -1.24,-1.23 -2.22,-1.23v0c-0.58667,0 -1.08667,0.13333 -1.5,0.4c-0.42,0.26 -0.76,0.62 -1.02,1.08v0v5.49c0.26,0.46667 0.59667,0.82667 1.01,1.08c0.41333,0.25333 0.92333,0.38 1.53,0.38v0c0.96667,0 1.7,-0.35333 2.2,-1.06c0.5,-0.71333 0.75,-1.63333 0.75,-2.76zM203.70667,237.64167v0c-1.57333,0 -2.82333,-0.52333 -3.75,-1.57c-0.92667,-1.04 -1.39,-2.39333 -1.39,-4.06v0v-0.46c0,-1.60667 0.47667,-2.94333 1.43,-4.01c0.96,-1.06667 2.09,-1.6 3.39,-1.6v0c1.52,0 2.67,0.46 3.45,1.38c0.78,0.91333 1.17,2.13667 1.17,3.67v0v1.28h-7.31l-0.03,0.05c0.02,1.08 0.29333,1.97 0.82,2.67c0.52667,0.7 1.26667,1.05 2.22,1.05v0c0.69333,0 1.30333,-0.1 1.83,-0.3c0.52,-0.2 0.97,-0.47333 1.35,-0.82v0l0.81,1.34c-0.40667,0.38667 -0.94,0.71333 -1.6,0.98c-0.66667,0.26667 -1.46333,0.4 -2.39,0.4zM203.38667,227.56167v0c-0.68667,0 -1.27333,0.29 -1.76,0.87c-0.48,0.58 -0.77667,1.30667 -0.89,2.18v0l0.02,0.05h5.2v-0.27c0,-0.80667 -0.21667,-1.48 -0.65,-2.02c-0.42667,-0.54 -1.06667,-0.81 -1.92,-0.81zM215.17667,237.64167v0c-1.57333,0 -2.82333,-0.52333 -3.75,-1.57c-0.92667,-1.04 -1.39,-2.39333 -1.39,-4.06v0v-0.46c0,-1.60667 0.47667,-2.94333 1.43,-4.01c0.96,-1.06667 2.09,-1.6 3.39,-1.6v0c1.51333,0 2.66333,0.46 3.45,1.38c0.78,0.91333 1.17,2.13667 1.17,3.67v0v1.28h-7.31l-0.04,0.05c0.02667,1.08 0.30333,1.97 0.83,2.67c0.52667,0.7 1.26667,1.05 2.22,1.05v0c0.69333,0 1.3,-0.1 1.82,-0.3c0.52667,-0.2 0.98,-0.47333 1.36,-0.82v0l0.81,1.34c-0.40667,0.38667 -0.94,0.71333 -1.6,0.98c-0.66667,0.26667 -1.46333,0.4 -2.39,0.4zM214.85667,227.56167v0c-0.68667,0 -1.27333,0.29 -1.76,0.87c-0.48667,0.58 -0.78333,1.30667 -0.89,2.18v0l0.02,0.05h5.2v-0.27c0,-0.80667 -0.21667,-1.48 -0.65,-2.02c-0.43333,-0.54 -1.07333,-0.81 -1.92,-0.81z"></path></g></g></svg>